<svg width="24" height="24" viewBox="0 0 24 24" fill="none" xmlns="http://www.w3.org/2000/svg">
<g id="oui:app-management" clip-path="url(#clip0_2884_9120)">
<path id="Vector" d="M12 15.75C11.0054 15.75 10.0516 15.3549 9.34835 14.6517C8.64509 13.9484 8.25 12.9946 8.25 12C8.25 11.0054 8.64509 10.0516 9.34835 9.34835C10.0516 8.64509 11.0054 8.25 12 8.25C12.9946 8.25 13.9484 8.64509 14.6517 9.34835C15.3549 10.0516 15.75 11.0054 15.75 12C15.75 12.9946 15.3549 13.9484 14.6517 14.6517C13.9484 15.3549 12.9946 15.75 12 15.75ZM12 9.75C11.4033 9.75 10.831 9.98705 10.409 10.409C9.98705 10.831 9.75 11.4033 9.75 12C9.75 12.5967 9.98705 13.169 10.409 13.591C10.831 14.0129 11.4033 14.25 12 14.25C12.5967 14.25 13.169 14.0129 13.591 13.591C14.0129 13.169 14.25 12.5967 14.25 12C14.25 11.4033 14.0129 10.831 13.591 10.409C13.169 9.98705 12.5967 9.75 12 9.75Z" fill="white"/>
<path id="Vector_2" d="M15 24H9V20.955C8.98441 20.8227 8.93389 20.697 8.85363 20.5908C8.77337 20.4845 8.66626 20.4015 8.54331 20.3504C8.42037 20.2992 8.28601 20.2817 8.15406 20.2996C8.02211 20.3176 7.89731 20.3704 7.7925 20.4525L5.6325 22.605L1.395 18.3675L3.5475 16.215C3.64368 16.1187 3.70924 15.9961 3.73593 15.8627C3.76262 15.7292 3.74925 15.5909 3.6975 15.465C3.64772 15.3338 3.55954 15.2207 3.44447 15.1404C3.3294 15.0601 3.1928 15.0164 3.0525 15.015H0V9H3.045C3.18251 8.99927 3.31667 8.95747 3.43026 8.87996C3.54384 8.80246 3.63168 8.69278 3.6825 8.565C3.73326 8.4395 3.74682 8.30204 3.72155 8.16904C3.69628 8.03605 3.63325 7.91314 3.54 7.815L1.395 5.6325L5.6325 1.395L7.785 3.5475C7.88979 3.63163 8.01525 3.68606 8.14828 3.70509C8.2813 3.72413 8.41699 3.70708 8.54117 3.65572C8.66535 3.60437 8.77345 3.52059 8.85416 3.41315C8.93488 3.30572 8.98525 3.17857 9 3.045V0H15V3.045C15.0156 3.17725 15.0661 3.30297 15.1464 3.40923C15.2266 3.5155 15.3337 3.59847 15.4567 3.64964C15.5796 3.7008 15.714 3.71831 15.8459 3.70036C15.9779 3.68241 16.1027 3.62965 16.2075 3.5475L18.36 1.395L22.605 5.64L20.4525 7.7925C20.3563 7.88879 20.2908 8.01136 20.2641 8.14481C20.2374 8.27826 20.2508 8.41663 20.3025 8.5425C20.3523 8.67368 20.4405 8.78679 20.5555 8.86707C20.6706 8.94736 20.8072 8.99107 20.9475 8.9925H24V14.9925H20.955C20.8175 14.9932 20.6833 15.035 20.5697 15.1125C20.4562 15.19 20.3683 15.2997 20.3175 15.4275C20.2667 15.553 20.2532 15.6905 20.2784 15.8235C20.3037 15.9565 20.3667 16.0794 20.46 16.1775L22.6125 18.33L18.3675 22.575L16.215 20.4225C16.1102 20.3404 15.9854 20.2876 15.8534 20.2696C15.7215 20.2517 15.5871 20.2692 15.4642 20.3204C15.3412 20.3715 15.2341 20.4545 15.1539 20.5608C15.0736 20.667 15.0231 20.7927 15.0075 20.925L15 24ZM10.5 22.5H13.5V20.955C13.5216 20.5306 13.663 20.121 13.9077 19.7736C14.1524 19.4262 14.4905 19.1552 14.8829 18.992C15.2752 18.8288 15.7058 18.78 16.1247 18.8514C16.5436 18.9227 16.9338 19.1112 17.25 19.395L18.345 20.49L20.4675 18.3675L19.395 17.25C19.1112 16.9338 18.9227 16.5436 18.8514 16.1247C18.78 15.7058 18.8288 15.2752 18.992 14.8829C19.1552 14.4905 19.4262 14.1524 19.7736 13.9077C20.121 13.663 20.5306 13.5216 20.955 13.5H22.5V10.5H20.955C20.5306 10.4784 20.121 10.337 19.7736 10.0923C19.4262 9.84757 19.1552 9.50946 18.992 9.11712C18.8288 8.72477 18.78 8.29422 18.8514 7.87531C18.9227 7.4564 19.1112 7.06624 19.395 6.75L20.49 5.655L18.3675 3.5175L17.25 4.605C16.9338 4.88884 16.5436 5.07733 16.1247 5.14865C15.7058 5.21996 15.2752 5.17119 14.8829 5.00797C14.4905 4.84476 14.1524 4.57377 13.9077 4.22638C13.663 3.87899 13.5216 3.46939 13.5 3.045V1.5H10.5V3.045C10.4784 3.46939 10.337 3.87899 10.0923 4.22638C9.84757 4.57377 9.50946 4.84476 9.11712 5.00797C8.72477 5.17119 8.29422 5.21996 7.87531 5.14865C7.4564 5.07733 7.06624 4.88884 6.75 4.605L5.6325 3.5175L3.5175 5.6325L4.605 6.75C4.88884 7.06624 5.07733 7.4564 5.14865 7.87531C5.21996 8.29422 5.17119 8.72477 5.00797 9.11712C4.84476 9.50946 4.57377 9.84757 4.22638 10.0923C3.87899 10.337 3.46939 10.4784 3.045 10.5H1.5V13.5H3.045C3.46939 13.5216 3.87899 13.663 4.22638 13.9077C4.57377 14.1524 4.84476 14.4905 5.00797 14.8829C5.17119 15.2752 5.21996 15.7058 5.14865 16.1247C5.07733 16.5436 4.88884 16.9338 4.605 17.25L3.5175 18.3675L5.64 20.49L6.75 19.395C7.06624 19.1112 7.4564 18.9227 7.87531 18.8514C8.29422 18.78 8.72477 18.8288 9.11712 18.992C9.50946 19.1552 9.84757 19.4262 10.0923 19.7736C10.337 20.121 10.4784 20.5306 10.5 20.955V22.5Z" fill="white"/>
</g>
<defs>
<clipPath id="clip0_2884_9120">
<rect width="24" height="24" fill="white"/>
</clipPath>
</defs>
</svg>
