<svg xmlns="http://www.w3.org/2000/svg" width="24" height="24" fill="none"><g fill="#fff" clip-path="url(#a)"><path d="M12 15.75a3.75 3.75 0 1 1 0-7.5 3.75 3.75 0 0 1 0 7.5m0-6a2.25 2.25 0 1 0 0 4.5 2.25 2.25 0 0 0 0-4.5"/><path d="M15 24H9v-3.045a.75.75 0 0 0-1.207-.502l-2.16 2.152-4.238-4.238 2.153-2.152a.69.69 0 0 0 .15-.75.7.7 0 0 0-.645-.45H0V9h3.045a.69.69 0 0 0 .638-.435.7.7 0 0 0-.143-.75L1.395 5.633l4.238-4.238 2.152 2.153A.75.75 0 0 0 9 3.044V0h6v3.045a.75.75 0 0 0 1.207.502l2.153-2.152 4.245 4.245-2.152 2.153a.69.69 0 0 0-.15.75.7.7 0 0 0 .645.45H24v6h-3.045a.69.69 0 0 0-.637.434.7.7 0 0 0 .142.75l2.153 2.153-4.245 4.245-2.153-2.152a.75.75 0 0 0-1.207.502zm-4.5-1.5h3v-1.545a2.25 2.25 0 0 1 3.75-1.56l1.095 1.095 2.123-2.122-1.073-1.118a2.25 2.25 0 0 1 1.56-3.75H22.5v-3h-1.545a2.25 2.25 0 0 1-1.56-3.75l1.095-1.095-2.122-2.137-1.118 1.087a2.25 2.25 0 0 1-3.75-1.56V1.5h-3v1.545a2.25 2.25 0 0 1-3.75 1.56L5.633 3.517 3.518 5.634 4.605 6.75a2.25 2.25 0 0 1-1.56 3.75H1.5v3h1.545a2.25 2.25 0 0 1 1.56 3.75l-1.088 1.117L5.64 20.49l1.11-1.095a2.25 2.25 0 0 1 3.75 1.56z"/></g><defs><clipPath id="a"><path fill="#fff" d="M0 0h24v24H0z"/></clipPath></defs></svg>