<svg xmlns="http://www.w3.org/2000/svg" width="28" height="28" fill="none"><mask id="a" width="24" height="24" x="2" y="2" maskUnits="userSpaceOnUse" style="mask-type:alpha"><path fill="#D9D9D9" d="M2 2h24v24H2z"/></mask><g mask="url(#a)"><path fill="#35353A" d="M7 21h1.261l10.237-10.237-1.261-1.261L7 19.738V21Zm-.596 1.5a.874.874 0 0 1-.644-.26.874.874 0 0 1-.26-.644v-1.733a1.801 1.801 0 0 1 .527-1.275L18.69 5.931a1.7 1.7 0 0 1 .501-.319 1.5 1.5 0 0 1 .575-.112c.2 0 .395.036.583.107.188.07.354.184.499.34l1.221 1.236c.155.145.266.311.332.5.066.188.099.377.099.565 0 .201-.034.393-.103.576-.069.183-.178.35-.328.501L9.411 21.973a1.801 1.801 0 0 1-1.274.527H6.403Zm11.452-12.356-.62-.642 1.262 1.261-.642-.62Z"/></g></svg>