<svg xmlns="http://www.w3.org/2000/svg" width="30" height="30" fill="none"><g clip-path="url(#a)"><path fill="#000" fill-rule="evenodd" d="M0 7.031a1.406 1.406 0 0 1 1.406-1.406h27.188a1.406 1.406 0 0 1 0 2.813H1.406A1.406 1.406 0 0 1 0 7.03ZM0 15a1.406 1.406 0 0 1 1.406-1.406h27.188a1.406 1.406 0 1 1 0 2.812H1.406A1.406 1.406 0 0 1 0 15Zm1.406 6.563a1.406 1.406 0 0 0 0 2.812h27.188a1.406 1.406 0 0 0 0-2.813H1.406Z" clip-rule="evenodd"/></g><defs><clipPath id="a"><path fill="#fff" d="M0 0h30v30H0z"/></clipPath></defs></svg>