<svg xmlns="http://www.w3.org/2000/svg" width="32" height="32" fill="none"><mask id="a" width="24" height="24" x="4" y="4" maskUnits="userSpaceOnUse" style="mask-type:alpha"><path fill="#D9D9D9" d="M4 4h24v24H4z"/></mask><g mask="url(#a)"><path fill="#35353A" d="m14.454 16 4.073 4.073c.138.139.21.313.212.522a.706.706 0 0 1-.212.532.717.717 0 0 1-.527.217.717.717 0 0 1-.527-.217l-4.494-4.494a.83.83 0 0 1-.256-.633.83.83 0 0 1 .256-.633l4.494-4.494a.725.725 0 0 1 .522-.212.707.707 0 0 1 .532.212c.145.145.217.32.217.527a.718.718 0 0 1-.217.527L14.454 16Z"/></g></svg>