<svg width="24" height="24" viewBox="0 0 24 24" fill="none" xmlns="http://www.w3.org/2000/svg">
<g id="Backward">
<rect x="0.25" y="0.25" width="23.5" height="23.5" stroke="#6E6E71" stroke-width="0.5"/>
<mask id="mask0_933_3112" style="mask-type:alpha" maskUnits="userSpaceOnUse" x="0" y="0" width="24" height="24">
<rect id="Bounding box" x="0.25" y="0.25" width="23.5" height="23.5" fill="#D9D9D9" stroke="#6E6E71" stroke-width="0.5"/>
</mask>
<g mask="url(#mask0_933_3112)">
<path id="chevron_left" d="M10.4539 12L14.5269 16.0731C14.6654 16.2116 14.7362 16.3856 14.7394 16.5952C14.7427 16.8048 14.6718 16.9821 14.5269 17.1269C14.3821 17.2718 14.2064 17.3443 14 17.3443C13.7936 17.3443 13.618 17.2718 13.4731 17.1269L8.97892 12.6327C8.88532 12.5391 8.81929 12.4404 8.78084 12.3366C8.74238 12.2327 8.72314 12.1205 8.72314 12C8.72314 11.8795 8.74238 11.7673 8.78084 11.6635C8.81929 11.5597 8.88532 11.4609 8.97892 11.3674L13.4731 6.87313C13.6116 6.73466 13.7856 6.66383 13.9952 6.66063C14.2048 6.65741 14.3821 6.72824 14.5269 6.87313C14.6718 7.01799 14.7443 7.19363 14.7443 7.40003C14.7443 7.60643 14.6718 7.78206 14.5269 7.92693L10.4539 12Z" fill="#35353A"/>
</g>
</g>
</svg>
