<svg xmlns="http://www.w3.org/2000/svg" width="28" height="28" fill="none"><mask id="a" width="24" height="24" x="2" y="2" maskUnits="userSpaceOnUse" style="mask-type:alpha"><path fill="#D9D9D9" d="M2 2h24v24H2z"/></mask><g mask="url(#a)"><path fill="#35353A" d="M9.308 22.5a1.74 1.74 0 0 1-1.277-.531 1.74 1.74 0 0 1-.531-1.277V8h-.25a.726.726 0 0 1-.534-.216.726.726 0 0 1-.216-.534c0-.213.072-.391.216-.535A.726.726 0 0 1 7.25 6.5H11a.85.85 0 0 1 .259-.626.853.853 0 0 1 .626-.259h4.23a.85.85 0 0 1 .626.26A.852.852 0 0 1 17 6.5h3.75c.212 0 .39.072.534.216a.726.726 0 0 1 .216.534.726.726 0 0 1-.216.535.726.726 0 0 1-.534.215h-.25v12.692c0 .497-.177.923-.531 1.277a1.74 1.74 0 0 1-1.277.531H9.308ZM19 8H9v12.692a.3.3 0 0 0 .087.221.3.3 0 0 0 .22.087h9.385a.3.3 0 0 0 .221-.087.3.3 0 0 0 .087-.22V8Zm-6.846 11c.213 0 .39-.072.534-.216a.726.726 0 0 0 .216-.534v-7.5a.726.726 0 0 0-.216-.534.726.726 0 0 0-.535-.216.725.725 0 0 0-.534.216.726.726 0 0 0-.215.534v7.5c0 .212.072.39.216.534a.726.726 0 0 0 .534.216Zm3.692 0a.726.726 0 0 0 .535-.216.726.726 0 0 0 .215-.534v-7.5a.726.726 0 0 0-.216-.534.726.726 0 0 0-.534-.216.725.725 0 0 0-.534.216.726.726 0 0 0-.216.534v7.5c0 .212.072.39.216.534a.727.727 0 0 0 .534.216Z"/></g></svg>