<svg width="20" height="21" viewBox="0 0 20 21" fill="none" xmlns="http://www.w3.org/2000/svg">
<g id="Delete">
<mask id="mask0_895_3888" style="mask-type:alpha" maskUnits="userSpaceOnUse" x="0" y="0" width="20" height="21">
<rect id="Bounding box" y="0.5" width="20" height="20" fill="#D9D9D9"/>
</mask>
<g mask="url(#mask0_895_3888)">
<path id="delete" d="M6.08975 17.5833C5.67549 17.5833 5.32085 17.4358 5.02585 17.1408C4.73084 16.8458 4.58333 16.4911 4.58333 16.0769V5.49996H4.375C4.19792 5.49996 4.04948 5.44004 3.92969 5.32019C3.8099 5.20036 3.75 5.05186 3.75 4.87469C3.75 4.69754 3.8099 4.54914 3.92969 4.42948C4.04948 4.30982 4.19792 4.24998 4.375 4.24998H7.49998C7.49998 4.04593 7.57183 3.87205 7.71552 3.72836C7.85922 3.58466 8.03309 3.51282 8.23715 3.51282H11.7628C11.9669 3.51282 12.1407 3.58466 12.2844 3.72836C12.4281 3.87205 12.5 4.04593 12.5 4.24998H15.625C15.802 4.24998 15.9505 4.30991 16.0703 4.42975C16.1901 4.5496 16.25 4.6981 16.25 4.87525C16.25 5.05242 16.1901 5.20083 16.0703 5.32048C15.9505 5.44014 15.802 5.49996 15.625 5.49996H15.4166V16.0769C15.4166 16.4911 15.2691 16.8458 14.9741 17.1408C14.6791 17.4358 14.3245 17.5833 13.9102 17.5833H6.08975ZM14.1666 5.49996H5.83331V16.0769C5.83331 16.1517 5.85735 16.2131 5.90544 16.2612C5.95352 16.3093 6.01496 16.3333 6.08975 16.3333H13.9102C13.985 16.3333 14.0464 16.3093 14.0945 16.2612C14.1426 16.2131 14.1666 16.1517 14.1666 16.0769V5.49996ZM8.46181 14.6666C8.63897 14.6666 8.78737 14.6067 8.90702 14.4869C9.02669 14.3672 9.08652 14.2187 9.08652 14.0417V7.79161C9.08652 7.61454 9.0266 7.46611 8.90675 7.34632C8.7869 7.22653 8.6384 7.16663 8.46125 7.16663C8.28408 7.16663 8.13567 7.22653 8.01602 7.34632C7.89637 7.46611 7.83654 7.61454 7.83654 7.79161V14.0417C7.83654 14.2187 7.89647 14.3672 8.01631 14.4869C8.13615 14.6067 8.28465 14.6666 8.46181 14.6666ZM11.5387 14.6666C11.7159 14.6666 11.8643 14.6067 11.9839 14.4869C12.1036 14.3672 12.1634 14.2187 12.1634 14.0417V7.79161C12.1634 7.61454 12.1035 7.46611 11.9836 7.34632C11.8638 7.22653 11.7153 7.16663 11.5381 7.16663C11.361 7.16663 11.2126 7.22653 11.0929 7.34632C10.9733 7.46611 10.9134 7.61454 10.9134 7.79161V14.0417C10.9134 14.2187 10.9734 14.3672 11.0932 14.4869C11.2131 14.6067 11.3616 14.6666 11.5387 14.6666Z" fill="black"/>
</g>
</g>
</svg>
