<svg xmlns="http://www.w3.org/2000/svg" width="14" height="15" fill="none"><path fill="#000" d="M3.09 14.583a1.45 1.45 0 0 1-1.064-.442 1.45 1.45 0 0 1-.443-1.064V2.5h-.208a.605.605 0 0 1-.445-.18.605.605 0 0 1-.18-.445c0-.177.06-.326.18-.446s.268-.179.445-.179H4.5a.71.71 0 0 1 .216-.522.71.71 0 0 1 .521-.215h3.526a.71.71 0 0 1 .521.215.71.71 0 0 1 .216.522h3.125c.177 0 .325.06.445.18s.18.268.18.445-.06.326-.18.445a.605.605 0 0 1-.445.18h-.208v10.577c0 .414-.148.769-.443 1.064a1.45 1.45 0 0 1-1.064.442H3.09ZM11.167 2.5H2.833v10.577a.25.25 0 0 0 .072.184.25.25 0 0 0 .185.072h7.82a.25.25 0 0 0 .184-.072.25.25 0 0 0 .073-.184V2.5Zm-5.705 9.167c.177 0 .325-.06.445-.18s.18-.268.18-.445v-6.25a.605.605 0 0 0-.18-.446.605.605 0 0 0-.446-.18.604.604 0 0 0-.445.18.605.605 0 0 0-.18.446v6.25c0 .177.06.325.18.445s.269.18.446.18Zm3.077 0c.177 0 .325-.06.445-.18s.18-.268.18-.445v-6.25a.605.605 0 0 0-.18-.446.605.605 0 0 0-.446-.18.604.604 0 0 0-.445.18.605.605 0 0 0-.18.446v6.25c0 .177.06.325.18.445s.269.18.446.18Z"/></svg>