<svg width="30" height="30" viewBox="0 0 30 30" fill="none" xmlns="http://www.w3.org/2000/svg">
<g id="Delete">
<mask id="mask0_1216_9624" style="mask-type:alpha" maskUnits="userSpaceOnUse" x="0" y="0" width="30" height="30">
<rect id="Bounding box" width="30" height="30" fill="#D9D9D9"/>
</mask>
<g mask="url(#mask0_1216_9624)">
<path id="delete" d="M9.13462 25.625C8.51323 25.625 7.98128 25.4037 7.53878 24.9612C7.09626 24.5187 6.875 23.9867 6.875 23.3654V7.50001H6.5625C6.29688 7.50001 6.07422 7.41012 5.89453 7.23035C5.71484 7.0506 5.625 6.82785 5.625 6.5621C5.625 6.29637 5.71484 6.07377 5.89453 5.89429C6.07422 5.71479 6.29688 5.62504 6.5625 5.62504H11.25C11.25 5.31895 11.3577 5.05814 11.5733 4.8426C11.7888 4.62706 12.0496 4.51929 12.3557 4.51929H17.6442C17.9503 4.51929 18.2111 4.62706 18.4267 4.8426C18.6422 5.05814 18.75 5.31895 18.75 5.62504H23.4374C23.7031 5.62504 23.9257 5.71492 24.1054 5.89469C24.2851 6.07446 24.3749 6.29721 24.3749 6.56294C24.3749 6.82869 24.2851 7.05131 24.1054 7.23079C23.9257 7.41027 23.7031 7.50001 23.4374 7.50001H23.1249V23.3654C23.1249 23.9867 22.9037 24.5187 22.4612 24.9612C22.0187 25.4037 21.4867 25.625 20.8653 25.625H9.13462ZM21.25 7.50001H8.74997V23.3654C8.74997 23.4775 8.78603 23.5697 8.85816 23.6418C8.93028 23.7139 9.02244 23.75 9.13462 23.75H20.8653C20.9775 23.75 21.0697 23.7139 21.1418 23.6418C21.2139 23.5697 21.25 23.4775 21.25 23.3654V7.50001ZM12.6927 21.25C12.9584 21.25 13.1811 21.1602 13.3605 20.9805C13.54 20.8008 13.6298 20.5781 13.6298 20.3125V10.9375C13.6298 10.6719 13.5399 10.4492 13.3601 10.2695C13.1804 10.0898 12.9576 10 12.6919 10C12.4261 10 12.2035 10.0898 12.024 10.2695C11.8446 10.4492 11.7548 10.6719 11.7548 10.9375V20.3125C11.7548 20.5781 11.8447 20.8008 12.0245 20.9805C12.2042 21.1602 12.427 21.25 12.6927 21.25ZM17.3081 21.25C17.5738 21.25 17.7964 21.1602 17.9759 20.9805C18.1554 20.8008 18.2451 20.5781 18.2451 20.3125V10.9375C18.2451 10.6719 18.1552 10.4492 17.9755 10.2695C17.7957 10.0898 17.573 10 17.3072 10C17.0415 10 16.8189 10.0898 16.6394 10.2695C16.4599 10.4492 16.3702 10.6719 16.3702 10.9375V20.3125C16.3702 20.5781 16.46 20.8008 16.6398 20.9805C16.8196 21.1602 17.0423 21.25 17.3081 21.25Z" fill="#FF3B30"/>
</g>
</g>
</svg>
