<svg xmlns="http://www.w3.org/2000/svg" width="16" height="15" fill="none"><path fill="#000" d="M2.167 13.333h1.05l8.531-8.53-1.05-1.051-8.531 8.53v1.051Zm-.497 1.25a.729.729 0 0 1-.537-.216.729.729 0 0 1-.216-.537v-1.444a1.501 1.501 0 0 1 .44-1.063L11.908.777c.126-.115.265-.203.417-.266a1.25 1.25 0 0 1 .48-.093c.166 0 .328.03.485.089.156.059.295.153.416.283l1.017 1.03c.13.12.222.26.277.417a1.416 1.416 0 0 1-.003.951 1.182 1.182 0 0 1-.274.417L4.176 14.144a1.502 1.502 0 0 1-1.062.44H1.67Zm9.544-10.296-.517-.535 1.051 1.05-.534-.515Z"/></svg>