<svg xmlns="http://www.w3.org/2000/svg" width="20" height="21" fill="none"><mask id="a" width="20" height="21" x="0" y="0" maskUnits="userSpaceOnUse" style="mask-type:alpha"><path fill="#D9D9D9" d="M0 .5h20v20H0z"/></mask><g mask="url(#a)"><path fill="#000" d="M4.167 16.333h1.05l8.531-8.53-1.05-1.051-8.531 8.53v1.051Zm-.497 1.25a.729.729 0 0 1-.537-.216.729.729 0 0 1-.216-.537v-1.444a1.501 1.501 0 0 1 .44-1.063L13.908 3.777c.126-.115.265-.203.417-.266a1.25 1.25 0 0 1 .48-.093c.166 0 .328.03.485.089.156.059.295.153.416.283l1.017 1.03c.13.12.222.26.277.417a1.416 1.416 0 0 1-.003.951 1.182 1.182 0 0 1-.274.417L6.176 17.144a1.502 1.502 0 0 1-1.062.44H3.67Zm9.544-10.296-.517-.535 1.051 1.05-.534-.515Z"/></g></svg>