<svg width="20" height="21" viewBox="0 0 20 21" fill="none" xmlns="http://www.w3.org/2000/svg">
<g id="Edit">
<mask id="mask0_1250_3295" style="mask-type:alpha" maskUnits="userSpaceOnUse" x="0" y="0" width="20" height="21">
<rect id="Bounding box" y="0.5" width="20" height="20" fill="#D9D9D9"/>
</mask>
<g mask="url(#mask0_1250_3295)">
<path id="edit" d="M4.16648 16.3334H5.21775L13.7482 7.80292L12.697 6.75164L4.16648 15.2821V16.3334ZM3.66971 17.5834C3.45631 17.5834 3.27743 17.5112 3.13307 17.3668C2.98869 17.2225 2.9165 17.0436 2.9165 16.8302V15.3863C2.9165 15.1831 2.9555 14.9894 3.0335 14.8052C3.11149 14.621 3.21886 14.4606 3.35561 14.3238L13.9085 3.77573C14.0345 3.66127 14.1737 3.57282 14.3259 3.51039C14.4782 3.44796 14.6379 3.41675 14.8049 3.41675C14.972 3.41675 15.1339 3.4464 15.2905 3.50571C15.4471 3.565 15.5858 3.65928 15.7065 3.78854L16.7241 4.81898C16.8534 4.9397 16.9456 5.07862 17.0006 5.23573C17.0556 5.39283 17.0831 5.54992 17.0831 5.70702C17.0831 5.87459 17.0545 6.03451 16.9973 6.18677C16.9401 6.33905 16.849 6.47819 16.7241 6.60421L6.17607 17.1443C6.03932 17.281 5.87886 17.3884 5.69469 17.4664C5.51051 17.5444 5.31681 17.5834 5.11359 17.5834H3.66971ZM13.2134 7.2865L12.697 6.75164L13.7482 7.80292L13.2134 7.2865Z" fill="black"/>
</g>
</g>
</svg>
