<svg width="20" height="21" viewBox="0 0 20 21" fill="none" xmlns="http://www.w3.org/2000/svg">
<g id="Edit">
<mask id="mask0_895_4252" style="mask-type:alpha" maskUnits="userSpaceOnUse" x="0" y="0" width="20" height="21">
<rect id="Bounding box" y="0.5" width="20" height="20" fill="#D9D9D9"/>
</mask>
<g mask="url(#mask0_895_4252)">
<path id="edit" d="M4.16667 16.3334H5.21794L13.7484 7.80292L12.6971 6.75164L4.16667 15.2821V16.3334ZM3.6699 17.5834C3.45649 17.5834 3.27761 17.5112 3.13325 17.3668C2.98887 17.2225 2.91669 17.0436 2.91669 16.8302V15.3863C2.91669 15.1831 2.95569 14.9894 3.03369 14.8052C3.11167 14.621 3.21904 14.4606 3.35579 14.3238L13.9087 3.77573C14.0347 3.66127 14.1738 3.57282 14.3261 3.51039C14.4784 3.44796 14.638 3.41675 14.8051 3.41675C14.9722 3.41675 15.134 3.4464 15.2907 3.50571C15.4473 3.565 15.586 3.65928 15.7067 3.78854L16.7243 4.81898C16.8536 4.9397 16.9458 5.07862 17.0008 5.23573C17.0558 5.39283 17.0833 5.54992 17.0833 5.70702C17.0833 5.87459 17.0547 6.03451 16.9975 6.18677C16.9402 6.33905 16.8492 6.47819 16.7243 6.60421L6.17625 17.1443C6.0395 17.281 5.87904 17.3884 5.69487 17.4664C5.51069 17.5444 5.31699 17.5834 5.11377 17.5834H3.6699ZM13.2136 7.2865L12.6971 6.75164L13.7484 7.80292L13.2136 7.2865Z" fill="black"/>
</g>
</g>
</svg>
