<svg width="20" height="20" viewBox="0 0 20 20" fill="none" xmlns="http://www.w3.org/2000/svg">
<g id="fluent:text-sort-ascending-16-regular">
<path id="Vector" d="M6.82727 1.635C6.7798 1.52113 6.69969 1.42386 6.59703 1.35543C6.49437 1.28701 6.37376 1.2505 6.25039 1.2505C6.12703 1.2505 6.00641 1.28701 5.90376 1.35543C5.8011 1.42386 5.72099 1.52113 5.67352 1.635L2.54852 9.135C2.48963 9.28707 2.49251 9.45614 2.55655 9.60612C2.62059 9.75609 2.74071 9.8751 2.89127 9.93774C3.04184 10.0004 3.21093 10.0017 3.36244 9.9414C3.51396 9.8811 3.63591 9.76397 3.70227 9.615L4.58352 7.5H7.91602L8.79727 9.615C8.86092 9.76816 8.98281 9.88977 9.13612 9.95306C9.28943 10.0164 9.46161 10.0162 9.61477 9.9525C9.76793 9.88885 9.88954 9.76696 9.95283 9.61365C10.0161 9.46034 10.0159 9.28816 9.95227 9.135L6.82727 1.635ZM5.10352 6.25L6.24977 3.5L7.39602 6.25H5.10352ZM3.12477 11.875C3.12477 11.7092 3.19062 11.5503 3.30783 11.4331C3.42504 11.3158 3.58401 11.25 3.74977 11.25H8.12477C8.23919 11.2499 8.35146 11.2812 8.44933 11.3404C8.5472 11.3997 8.62691 11.4848 8.67978 11.5862C8.73264 11.6877 8.75664 11.8018 8.74914 11.9159C8.74165 12.0301 8.70295 12.1401 8.63727 12.2337L4.94977 17.5H8.12477C8.29053 17.5 8.4495 17.5658 8.56671 17.6831C8.68392 17.8003 8.74977 17.9592 8.74977 18.125C8.74977 18.2908 8.68392 18.4497 8.56671 18.5669C8.4495 18.6842 8.29053 18.75 8.12477 18.75H3.74977C3.63534 18.7501 3.52308 18.7188 3.42521 18.6596C3.32734 18.6003 3.24763 18.5152 3.19476 18.4138C3.14189 18.3123 3.1179 18.1982 3.1254 18.0841C3.13289 17.9699 3.17159 17.8599 3.23727 17.7663L6.92477 12.5H3.74977C3.58401 12.5 3.42504 12.4342 3.30783 12.3169C3.19062 12.1997 3.12477 12.0408 3.12477 11.875ZM15.6248 1.25C15.7905 1.25 15.9495 1.31585 16.0667 1.43306C16.1839 1.55027 16.2498 1.70924 16.2498 1.875V16.6163L17.6823 15.1825C17.7996 15.0651 17.9588 14.9992 18.1248 14.9992C18.2907 14.9992 18.4499 15.0651 18.5673 15.1825C18.6846 15.2999 18.7506 15.459 18.7506 15.625C18.7506 15.791 18.6846 15.9501 18.5673 16.0675L16.0673 18.5675C16.0092 18.6257 15.9402 18.6719 15.8643 18.7034C15.7884 18.7349 15.707 18.7511 15.6248 18.7511C15.5426 18.7511 15.4612 18.7349 15.3852 18.7034C15.3093 18.6719 15.2403 18.6257 15.1823 18.5675L12.6823 16.0675C12.5649 15.9501 12.499 15.791 12.499 15.625C12.499 15.459 12.5649 15.2999 12.6823 15.1825C12.7996 15.0651 12.9588 14.9992 13.1248 14.9992C13.2907 14.9992 13.4499 15.0651 13.5673 15.1825L14.9998 16.6163V1.875C14.9998 1.70924 15.0656 1.55027 15.1828 1.43306C15.3 1.31585 15.459 1.25 15.6248 1.25Z" fill="#171717"/>
</g>
</svg>
