<svg xmlns="http://www.w3.org/2000/svg" width="59" height="59" fill="none"><path fill="#D9D9D9" d="M0 5a5 5 0 0 1 5-5h49a5 5 0 0 1 5 5v49a5 5 0 0 1-5 5H5a5 5 0 0 1-5-5V5Z"/><path fill="#000" d="M29.042 29.042v4.791H24.25v1.917h4.792v4.792h1.916V35.75h4.792v-1.917h-4.792v-4.791h-1.916Z"/><path fill="#000" fill-rule="evenodd" d="M15.625 13.708a2.875 2.875 0 0 1 2.875-2.875h23a2.875 2.875 0 0 1 2.875 2.875v7.667A2.875 2.875 0 0 1 41.5 24.25v22.042a2.875 2.875 0 0 1-2.875 2.875h-17.25a2.875 2.875 0 0 1-2.875-2.875V24.25a2.875 2.875 0 0 1-2.875-2.875v-7.667Zm4.792 10.542h19.166v22.042a.958.958 0 0 1-.958.958h-17.25a.958.958 0 0 1-.958-.958V24.25ZM41.5 22.333h-3.833V12.75H41.5a.958.958 0 0 1 .958.958v7.667a.958.958 0 0 1-.958.958Zm-5.75-9.583h-4.792v9.583h4.792V12.75Zm-17.25 0h3.833v9.583H18.5a.958.958 0 0 1-.958-.958v-7.667a.958.958 0 0 1 .958-.958Zm5.75 9.583V12.75h4.792v9.583H24.25Z" clip-rule="evenodd"/></svg>