<svg width="140" height="140" viewBox="0 0 140 140" fill="none" xmlns="http://www.w3.org/2000/svg">
<g id="healthicons:medicine-bottle-outline">
<g id="Group">
<path id="Vector" d="M67.0833 67.0833V81.6666H52.5V87.4999H67.0833V102.083H72.9167V87.4999H87.5V81.6666H72.9167V67.0833H67.0833Z" fill="black"/>
<path id="Vector_2" fill-rule="evenodd" clip-rule="evenodd" d="M26.25 20.4166C26.25 18.096 27.1719 15.8704 28.8128 14.2294C30.4538 12.5885 32.6794 11.6666 35 11.6666H105C107.321 11.6666 109.546 12.5885 111.187 14.2294C112.828 15.8704 113.75 18.096 113.75 20.4166V43.75C113.75 46.0706 112.828 48.2962 111.187 49.9371C109.546 51.5781 107.321 52.5 105 52.5V119.583C105 121.904 104.078 124.13 102.437 125.77C100.796 127.411 98.5706 128.333 96.25 128.333H43.75C41.4294 128.333 39.2038 127.411 37.5628 125.77C35.9219 124.13 35 121.904 35 119.583V52.5C32.6794 52.5 30.4538 51.5781 28.8128 49.9371C27.1719 48.2962 26.25 46.0706 26.25 43.75V20.4166ZM40.8333 52.5H99.1667V119.583C99.1667 120.357 98.8594 121.099 98.3124 121.646C97.7654 122.193 97.0236 122.5 96.25 122.5H43.75C42.9765 122.5 42.2346 122.193 41.6876 121.646C41.1406 121.099 40.8333 120.357 40.8333 119.583V52.5ZM105 46.6666H93.3333V17.5H105C105.774 17.5 106.515 17.8073 107.062 18.3542C107.609 18.9012 107.917 19.6431 107.917 20.4166V43.75C107.917 44.5235 107.609 45.2654 107.062 45.8124C106.515 46.3593 105.774 46.6666 105 46.6666ZM87.5 17.5H72.9167V46.6666H87.5V17.5ZM35 17.5H46.6667V46.6666H35C34.2265 46.6666 33.4846 46.3593 32.9376 45.8124C32.3906 45.2654 32.0833 44.5235 32.0833 43.75V20.4166C32.0833 19.6431 32.3906 18.9012 32.9376 18.3542C33.4846 17.8073 34.2265 17.5 35 17.5ZM52.5 46.6666V17.5H67.0833V46.6666H52.5Z" fill="black"/>
</g>
</g>
</svg>
