<svg xmlns="http://www.w3.org/2000/svg" width="24" height="24" fill="none"><path stroke="#fff" stroke-linecap="round" stroke-linejoin="round" stroke-width="1.5" d="M3 8v5c0 3.771.001 5.656 1.172 6.828C5.343 21 7.229 21 11 21h2c3.771 0 5.656-.001 6.828-1.172C21 18.657 21 16.771 21 13V8M3 8h18M3 8l.865-1.923C4.537 4.585 4.872 3.84 5.552 3.42 6.232 3 7.105 3 8.85 3h6.3c1.745 0 2.617 0 3.298.42.68.42 1.015 1.165 1.687 2.657L21 8m-9 0V3"/><path stroke="#fff" stroke-linecap="round" stroke-linejoin="round" stroke-width="1.5" d="M8.5 13.5H14a2 2 0 0 1 0 4h-1m-3-6-2 2 2 2"/></svg>