<svg width="50" height="50" viewBox="0 0 50 50" fill="none" xmlns="http://www.w3.org/2000/svg">
<g id="ic--outline-cloud-upload 1" clip-path="url(#clip0_835_12128)">
<path id="Vector" d="M40.3125 20.9167C39.6127 17.3703 37.7033 14.1768 34.9106 11.8818C32.1178 9.58678 28.6148 8.33256 25 8.33337C18.9792 8.33337 13.75 11.75 11.1458 16.75C8.08382 17.0809 5.2521 18.5317 3.19477 20.8236C1.13744 23.1155 -0.000357712 26.0869 8.43599e-08 29.1667C8.43599e-08 36.0625 5.60417 41.6667 12.5 41.6667H39.5833C45.3333 41.6667 50 37 50 31.25C50 25.75 45.7292 21.2917 40.3125 20.9167ZM39.5833 37.5H12.5C7.89583 37.5 4.16667 33.7709 4.16667 29.1667C4.16667 24.8959 7.35417 21.3334 11.5833 20.8959L13.8125 20.6667L14.8542 18.6875C15.8124 16.8226 17.2666 15.2583 19.0567 14.1666C20.8468 13.0749 22.9033 12.4982 25 12.5C30.4583 12.5 35.1667 16.375 36.2292 21.7292L36.8542 24.8542L40.0417 25.0834C41.6078 25.1887 43.0759 25.8834 44.1505 27.0275C45.225 28.1717 45.8263 29.6804 45.8333 31.25C45.8333 34.6875 43.0208 37.5 39.5833 37.5ZM16.6667 27.0834H21.9792V33.3334H28.0208V27.0834H33.3333L25 18.75L16.6667 27.0834Z" fill="#515151"/>
</g>
<defs>
<clipPath id="clip0_835_12128">
<rect width="50" height="50" fill="white"/>
</clipPath>
</defs>
</svg>
