<svg width="15" height="15" viewBox="0 0 15 15" fill="none" xmlns="http://www.w3.org/2000/svg">
<g id="icons8:numerical-sorting-12">
<path id="Vector" d="M4.02844 2.34375L3.95531 2.70938C3.95531 2.70938 3.8775 2.97937 3.69141 3.25172C3.50531 3.525 3.27188 3.75 2.8125 3.75V4.6875C3.4575 4.6875 3.9 4.37109 4.21875 4.02844V7.03125H5.15625V2.34375H4.02844ZM10.3125 2.34375V11.1038L9.09656 9.88781L8.4375 10.5469L10.4438 12.5686L10.7812 12.8906L11.1187 12.5681L13.125 10.5469L12.4659 9.88781L11.25 11.1033V2.34375H10.3125ZM3.98438 7.96875C3.54963 7.96999 3.13305 8.14324 2.82564 8.45064C2.51823 8.75805 2.34499 9.17463 2.34375 9.60938V9.84375H3.28125V9.60938C3.28125 9.19875 3.57375 8.90625 3.98438 8.90625H4.45312C4.86375 8.90625 5.15625 9.19875 5.15625 9.60938C5.15625 9.82312 4.99078 10.0687 4.71656 10.2394C4.13813 10.5956 3.63094 10.8225 3.20812 11.0597C2.99625 11.1783 2.80172 11.2922 2.63625 11.4698C2.47219 11.6466 2.34375 11.9152 2.34375 12.187V12.6558H6.09375V11.7183H3.95484C4.29984 11.5411 4.69547 11.3639 5.21484 11.0442C5.69062 10.7475 6.09375 10.2398 6.09375 9.60938C6.09375 8.7075 5.355 7.96875 4.45312 7.96875H3.98438Z" fill="black"/>
</g>
</svg>
