<svg xmlns="http://www.w3.org/2000/svg" width="24" height="24" fill="none"><path fill="#fff" d="m3.941 10-.697.707L2.548 10l.696-.707.697.707Zm16.749 8c0 .265-.104.52-.289.707a.978.978 0 0 1-1.393 0 1.008 1.008 0 0 1-.289-.707h1.97ZM8.17 15.707l-4.926-5 1.394-1.414 4.926 5-1.393 1.414ZM3.245 9.293l4.927-5 1.393 1.414-4.926 5-1.394-1.414ZM3.941 9h9.852v2H3.941V9Zm16.749 7v2h-1.97v-2h1.97Zm-6.897-7c1.83 0 3.583.737 4.877 2.05A7.054 7.054 0 0 1 20.69 16h-1.97a5.039 5.039 0 0 0-1.444-3.536A4.89 4.89 0 0 0 13.793 11V9Z"/></svg>