<svg width="20" height="20" viewBox="0 0 20 20" fill="none" xmlns="http://www.w3.org/2000/svg">
<g id="material-symbols:refresh">
<path id="Vector" d="M9.99992 16.6667C8.13881 16.6667 6.56242 16.0208 5.27075 14.7292C3.97909 13.4375 3.33325 11.8611 3.33325 10C3.33325 8.13888 3.97909 6.56249 5.27075 5.27083C6.56242 3.97916 8.13881 3.33333 9.99992 3.33333C10.9583 3.33333 11.8749 3.53111 12.7499 3.92666C13.6249 4.32222 14.3749 4.88833 14.9999 5.625V3.33333H16.6666V9.16666H10.8333V7.5H14.3333C13.8888 6.72222 13.2813 6.11111 12.5108 5.66666C11.7402 5.22222 10.9033 4.99999 9.99992 4.99999C8.61103 4.99999 7.43047 5.48611 6.45825 6.45833C5.48603 7.43055 4.99992 8.61111 4.99992 10C4.99992 11.3889 5.48603 12.5694 6.45825 13.5417C7.43047 14.5139 8.61103 15 9.99992 15C11.0694 15 12.0346 14.6944 12.8958 14.0833C13.7569 13.4722 14.361 12.6667 14.7083 11.6667H16.4583C16.0694 13.1389 15.2777 14.3403 14.0833 15.2708C12.8888 16.2014 11.5277 16.6667 9.99992 16.6667Z" fill="#FFB300" fill-opacity="0.7"/>
</g>
</svg>
