<svg width="21" height="21" viewBox="0 0 21 21" fill="none" xmlns="http://www.w3.org/2000/svg">
<g id="mdi:filter">
<path id="Vector" d="M12.1668 10.5V17.0667C12.2001 17.3167 12.1168 17.5833 11.9251 17.7583C11.848 17.8356 11.7564 17.8969 11.6556 17.9387C11.5548 17.9805 11.4467 18.002 11.3376 18.002C11.2285 18.002 11.1204 17.9805 11.0196 17.9387C10.9188 17.8969 10.8272 17.8356 10.7501 17.7583L9.07511 16.0833C8.98427 15.9944 8.9152 15.8858 8.87328 15.7658C8.83136 15.6458 8.81773 15.5178 8.83344 15.3917V10.5H8.80844L4.00844 4.35C3.87312 4.17628 3.81205 3.95605 3.8386 3.73744C3.86514 3.51883 3.97714 3.31962 4.15011 3.18333C4.30844 3.06667 4.48344 3 4.66678 3H16.3334C16.5168 3 16.6918 3.06667 16.8501 3.18333C17.0231 3.31962 17.1351 3.51883 17.1616 3.73744C17.1882 3.95605 17.1271 4.17628 16.9918 4.35L12.1918 10.5H12.1668Z" fill="#171717"/>
</g>
</svg>
