<svg width="100" height="100" viewBox="0 0 100 100" fill="none" xmlns="http://www.w3.org/2000/svg">
<g id="oui:cross-in-circle-empty" clip-path="url(#clip0_1483_4605)">
<path id="Vector" fill-rule="evenodd" clip-rule="evenodd" d="M50 93.75C61.6032 93.75 72.7312 89.1406 80.9359 80.9359C89.1406 72.7312 93.75 61.6032 93.75 50C93.75 38.3968 89.1406 27.2688 80.9359 19.0641C72.7312 10.8594 61.6032 6.25 50 6.25C38.3968 6.25 27.2688 10.8594 19.0641 19.0641C10.8594 27.2688 6.25 38.3968 6.25 50C6.25 61.6032 10.8594 72.7312 19.0641 80.9359C27.2688 89.1406 38.3968 93.75 50 93.75ZM50 100C63.2608 100 75.9785 94.7322 85.3553 85.3553C94.7322 75.9785 100 63.2608 100 50C100 36.7392 94.7322 24.0215 85.3553 14.6447C75.9785 5.26784 63.2608 0 50 0C36.7392 0 24.0215 5.26784 14.6447 14.6447C5.26784 24.0215 0 36.7392 0 50C0 63.2608 5.26784 75.9785 14.6447 85.3553C24.0215 94.7322 36.7392 100 50 100Z" fill="#FF3B30"/>
<path id="Vector_2" d="M74.0875 30.3375C74.6567 29.7481 74.9717 28.9587 74.9646 28.1394C74.9575 27.32 74.6288 26.5362 74.0494 25.9568C73.47 25.3774 72.6862 25.0488 71.8669 25.0416C71.0475 25.0345 70.2581 25.3495 69.6688 25.9187L50 45.5812L30.3375 25.9187C30.0492 25.6203 29.7044 25.3822 29.3231 25.2184C28.9419 25.0547 28.5318 24.9684 28.1169 24.9648C27.7019 24.9612 27.2904 25.0403 26.9064 25.1974C26.5223 25.3546 26.1734 25.5866 25.88 25.88C25.5866 26.1734 25.3546 26.5223 25.1974 26.9064C25.0403 27.2904 24.9612 27.7019 24.9648 28.1169C24.9684 28.5318 25.0547 28.9419 25.2184 29.3231C25.3822 29.7044 25.6203 30.0492 25.9187 30.3375L45.5812 50L25.9187 69.6625C25.332 70.2485 25.002 71.0435 25.0014 71.8728C25.0008 72.702 25.3297 73.4976 25.9156 74.0844C26.5016 74.6712 27.2967 75.0012 28.1259 75.0017C28.9552 75.0023 29.7507 74.6735 30.3375 74.0875L50 54.4187L69.6688 74.0875C70.2555 74.6735 71.0511 75.0023 71.8803 75.0017C72.7096 75.0012 73.5047 74.6712 74.0906 74.0844C74.6766 73.4976 75.0054 72.702 75.0049 71.8728C75.0043 71.0435 74.6743 70.2485 74.0875 69.6625L54.425 50L74.0875 30.3375Z" fill="#FF3B30"/>
</g>
<defs>
<clipPath id="clip0_1483_4605">
<rect width="100" height="100" fill="white"/>
</clipPath>
</defs>
</svg>
